<svg xmlns="http://www.w3.org/2000/svg" width="538.77" height="541.536" id="starbucks">
  <path fill="#fff" d="M538.77 270.768c0 149.54-120.608 270.768-269.384 270.768S0 420.308 0 270.768 120.608-.002 269.386-.002s269.384 121.23 269.384 270.77Z"></path>
  <path fill="#106e33" d="M267.134 96.261c9.483 5.466 19.544 12.5 27.2 19.957l-3.007 3.021c-15.112-1.607-31.027.4-45.353.621-1.6-1.612-4.814-4.035-1.818-6.06Zm267.185 187.7c.2 6.819.842 12.676-1.818 19.658-27.606 7.853-45.739-21.375-72.524-16.969l3.028 15.15c24.78.815 40.26 24.579 65.859 23.558-3.637 7.263 1.623 26.4-14.489 18.753-16.728-4.021-28.823-18.753-47.15-18.753-2.211 4.059-.81 9.681-1.2 14.486 19.336 3.032 33.244 19.376 52.572 22.393-1.818 6.643-3.619 14.082-9.067 18.131-15.724-3.827-28.01-17.95-44.752-17.546l-2.979 13.911c15.907.409 26.191 14.486 40.488 18.713.393 5.866-4.85 11.112-7.875 16.348-12.693-3.811-22.371-14.717-36.877-13.911-.2-5.466 3.043-11.669 1.818-17.514-16.29 4.847-27.213-10.289-39.286-19.37-.346-29.71-31.625-49.2-33.276-77.036a41.294 41.294 0 0 1 3.057-17.842c10.28-23.768 7.051-54.628-4.22-76.789-3.429-5.834-9.494-10.436-15.15-13.866 8.273 17.539 18.36 38.261 13.325 59.817-.583 16.645-10.407 32.633-10.517 48.68a33.452 33.452 0 0 0 4.475 17.22c13.1 23.6 36.68 45.945 27.814 75.547-2.438 9.092-9.693 16.121-11.508 25.374 15.331 12.7 29.828 27.008 50.171 27.812 7.248-4.629 3.222-25.159 18.133-15.688l21.772 10.891c-1.585 5.827-6.466 11.05-10.885 15.063-8.261-4.019-16.318-8.84-26.619-8.447-3.036 3.224-5.649 6.841-5.419 11.465a48.521 48.521 0 0 1 19.957 8.494c-2.813 6.055-8.292 9.847-13.328 14.486l-16.887-6.038c-2.82 4.035-8.677 8.273-6.622 12.7 3.812 1.63 8.038 3.836 10.842 6.663-7.453 8.058-16.9 13.243-25.994 18.711-7.831-25.6-33.637-43.542-31.42-73.144l-1.2-1.2c-6.064 6.821-4.039 17.724-3.648 26.575 7.259 18.539 24.574 32.86 27.2 53.192-3.032 5.234-9.865 6.278-15.112 8.491.612-36.656-55-64.459-19.336-101.539 11.892-18.157 31.818-35.484 24.758-60.482-7.248-24.137-32.887-39.092-32.661-66.147l.042-2.112c5.837-28.214 23.578-58.238 9.067-88.254-4.046-12.073-13.082-25.793-25.371-30.839 18.323 20.971 25.586 55.191 15.105 83.413-5.285 11.227-12.559 24.6-13.287 37.8h-.048a31.559 31.559 0 0 0 5.466 20.243c13.91 22.576 38.076 47.371 24.175 76.789-15.714 23.563-43.115 47.532-27.81 78.57 11.079 18.533 28.221 37.029 23.594 59.815l-18.13 6.04c12.088-42.5-47.157-67.473-22.353-109.99 15.31-22.765 42.7-44.127 27.193-74.343-9.268-18.722-28.415-29.8-27.814-53.2l.661-3.93c6.239-33.18 31.465-64.591 13.825-100.048a63 63 0 0 0-24.175-27.194l-.619.619c20.56 19.946 26.814 52.766 15.728 79.147-5.171 15.478-16.523 30.9-18.829 47.481a39 39 0 0 0 4.343 24.465c13.095 20.736 36.06 42.732 21.73 69.541-15.091 22.141-40.284 43.689-30.221 72.484 11.086 25.193 34.227 49.195 21.734 80.432l-18.713 4.225c14.9-30.442-7.442-60.652-20.535-87.053-15.925-37.882 34.215-56.021 35.021-90.652-.19-22.355-23.956-35.048-28.975-55.6-10.287-8.679-20.948 3.448-33.244 1.2-9.076 1.824-23.018-12.495-28.437 3.028-6.451 22.755-35.852 39.483-22.933 66.475 12.3 23.985 41.883 41.522 32 72.564-8.849 28.991-38.083 56.6-19.952 90.036-7.449-2.412-21.355 2.208-21.154-9.691-11.479-40.494 37.473-64.088 22.353-104.562-7.036-24.791-39.1-38.485-32.038-68.3 5.218-24.545 32.76-41.7 28.9-68.59a39.836 39.836 0 0 0-1.659-6.955c-10.28-29.013-31.253-58.035-18.753-91.9 3.432-9.67 10.287-17.929 16.311-26.573-19.948 10.673-30.011 33.246-29.6 56.209-.869 24.972 17.577 46.364 20.2 69.215 1.032 9.222-.478 18.668-6.915 28.685-13.086 17.755-30.2 36.477-22.353 59.857 7.46 23.583 36.873 37.871 35.062 65.281-.2 32.427-37.879 52.614-27.2 88.879l-18.753-6.084c-7.446-32.226 26.8-48.711 27.193-78.528 4.847-34.285-38.884-47.007-36.259-80.432-.188-25.394 22.165-41.477 32.038-62.838a40.948 40.948 0 0 0 2.03-14.819c-1.21-23.617-22.491-42.08-18.959-68.635 1.188-19.542 7.837-36.674 20.535-51.37-17.519 7.036-24.757 27.2-29.6 44.131-8.4 27.144 11.649 51.558 13.658 75.875.891 10.74-1.732 21.417-11.836 32.333-14.515 17.1-29.234 38.686-18.755 61.675 11.1 25.365 45.96 45.109 30.839 76.744-8.25 19.952-28 35.051-27.193 58.618-5.234-2.217-10.664-4.426-15.112-8.447 0-30.013 42.7-48.76 22.353-80.392-1.8 6.24-2.19 14.723-3.6 21.774-7.06 18.343-22.165 33.025-27.818 51.989-9.452-3.648-19.336-11.312-27.2-19.372l10.891-6.663c-1.21-4.039-4.428-7.46-7.245-10.885-7.071-.992-11.715 3.648-17.546 5.466-5.037-4.443-9.9-8.473-13.913-13.913 3.615-10.295 31.862-1.782 17.552-18.711-9.661-6.038-19.358 2.59-27.818 6.618l-11.46-14.479c9.873-6.038 19.72-14.522 32-12.088 3.026 5.45 3.237 13.462 9.067 16.308 20.756-.4 35.462-16.1 51.373-28.4-11.09-16.5-20.116-39.28-10.266-59.238 7.891-19.995 28.459-36.839 29.39-58.946a39.27 39.27 0 0 0-2.773-16.021c-10.874-28.01-14.712-65.866 6.044-90.657-11.285 3.032-17.94 17.1-21.774 27.778-12.477 27.35 3.3 52.69 3.849 78.9a56.518 56.518 0 0 1-1.451 14.2c-10.682 21.556-27.99 40.47-30.8 65.276-12.294 7.842-22.388 21.556-39.905 16.929-.616 4.629.8 11.686 2.4 16.931-13.892-.585-23.364 9.655-35.059 14.489-6.232-2-7.853-10.054-10.266-15.688 13.69-4.624 23.567-18.349 39.286-18.133 1.822-5.062-1.021-9.7-1.824-14.531-19.553-8.677-50.548 42.9-53.154-1.818 19.539-1.208 32.023-19.347 51.375-21.154l.578-14.486c-21.96-2.217-36.087 20.357-58.038 18.133l-4.841-19.332c25.392 1.586 40.521-21.169 64.7-22.393 3.213-4.226 3.6-10.47 4.22-16.308-26.4-3.441-44.507 25.813-72.524 16.929 0 0-.965-12.174-1.489-19.041h.038q-.159-2.279-.371-4.553c24.981 9.692 46.931-8.251 68.3-17.512 5.435-1.626 13.911 1.193 16.348-4.847-.208-4.635 8.243-10.054 1.206-13.287-31.244-4.242-52 33.445-84.038 16.309l-2.4-4.847c6.66-91.059 58.013-179.093 143.232-222.414 34.512-19.724 77.389-29.775 120.63-30.134 52.183-.435 104.917 13.256 144.143 41.023 38.09 23.364 74.525 61.871 94.3 100.961 18.914 34.251 27.616 72.682 30.217 113.594-33.05 24.972-55.222-23.525-88.877-12.671 1.811 5.247 2.816 10.678 6.665 15.11 29.828-.212 50.366 31.022 81.591 18.711l.033 4.557Zm-379.642-112.14c-20.959-13.7-47.528-.8-67.06 6.665-1.813-18.343-9.262-35.055-24.795-47.142-1.507-.752-3.59-2.327-5.466-2.445a3.117 3.117 0 0 0-3.021 1.818c7.04 43.312-21.114 73.533-41.066 106.387 6.643 5.428 17.316 4.618 25.374 3.021 21.151-8.456 41.3-23.179 66.482-18.133 7.449-12.693 19.961-24.987 30.221-35.058 6.27-5.426 14.881-8.869 19.331-15.112Zm64.081 27.2c-.4 2.608.2 7.259 4.222 5.461 6.256-8.663 17.331-1.807 24.177-1.2v-2.438c-3.756-5.9-11.483-8.86-19.332-8.567a28.605 28.605 0 0 0-5.423.741 4.7 4.7 0 0 0-3.644 6Zm98.519-25.954c-5.627-12.5-18.523-17.552-30.221-20.575a157.575 157.575 0 0 0-17.6-1.241c-1.107-.011-2.211-.025-3.314 0-16.514.333-32.295 4.573-41.935 18.168-1.384 3.838-7.467 9.228-1.818 12.667 12.694-.81 27.18-2.4 35.642 8.491 0 9.682 6.252 22.56-4.222 27.194-8.677-8.034-18.954 3.421-28.4-3.026-4.439-2.624-7.248.437-9.067 4.265-2.624 24.976 10.456 52.543 33.822 66.44 9.471 3.416 22.2 6.663 32.085 1.818 23.771-11.07 33.619-36.441 38.049-59.815-.594-4.448-.386-13.116-6.625-13.328-7.047 4.459-17.326 1.824-24.793 0-4.417 1.425-4.62 7.888-9.646 9.112l-3.063-2.443c-2.624-11.066-4.242-26.785 6.046-34.443 11.494-4.635 24.992-6.658 36.877-3.021 2.219-3.829-1.2-6.841-1.824-10.264Zm-12.129 19.865c-.8.022-1.574.062-2.364.087-4.22 2.816-16.523.792-12.08 10.264 7.659-6.058 18.338-1.813 25.994 1.2 2.829-1.4 2.219-4.226 2.4-6.66-2.46-4.573-8.331-5-13.951-4.89Zm87.729-85.188c-14.913-.792-27.4 7.676-41.1 11.5-1.192-11.66 7.665-23.974 9.686-35.68-22.154 1.425-39.7 14.763-58.035 25.416q-6.382-15.405-12.707-30.837L314.9 55.167l.619-3.028-32.661-1.818c-5.624-9.856-7.842-21.728-14.489-30.8-5.441 10.276-9.1 21.151-14.531 31.414l-32.619 1.824v2.4l24.757 22.353c-3.026 11.49-5.839 23.974-13.288 32.657-14.5-8.688-28.8-18.142-44.707-24.177-3.827-1.233-9.282-3.242-12.707-.619 5.03 11.086 12.073 23.009 10.889 35.107-6.654-1.224-11.883-5.49-18.133-7.283-7.475-2.041-16.342-6.024-23.594-3.6 12.091 16.913 21.96 34.617 25.374 54.972 40.112-19.361 86.89-30.009 135.447-21.734 22.763 3.62 43.69 12.894 64.044 20.529.8-21.343 14.29-38.492 23.579-55.633Zm68.884 116.068c20.535 5.433 41.133 27.808 62.878 13.292-18.939-31.426-47.126-60.447-39.286-101.541a4.731 4.731 0 0 0-3.6-6.044c-12.285 5.021-21.8 17.125-26.662 29.02-2 7.038-3.18 14.516-6 21.151-14.719-7.661-30.422-15.08-48.352-13.288-6.469.806-15.735 1.23-16.931 7.869 20.347 10.874 37.08 29.02 49.551 48.347 8.686-1.415 19.334-.207 28.4 1.193Zm-215.184 28.403.58 3.642c7.873 5.243 10.295 14.132 21.2 13.326 9.664.572 16.916-8.483 21.73-15.732-13.078-1.807-28.998.988-43.51-1.236Zm10.883-16.309c.393 1.612-1 4.03 1.2 4.847 6.449-1.4 18.13 3.43 21.73-4.227-2.516-2.816-6.618-4.095-10.927-4.095a21.833 21.833 0 0 0-12 3.476Z"></path>
  <path fill="#fff" d="M246.594 228.912h44.18v18.15h-44.18Z" opacity=".99"></path>
  <path fill="#106e33" d="M254.754 238.618c5.709 1.351 7.122 3.374 11.631 3.941 4.8-.085 4.108-1.06 12.47-3.946a1.458 1.458 0 0 0 .371-2.336c-5.2-5.155-8.788-1.471-12.041-1.373-4.323.045-8.373-3.7-12.593 1.17-.719.987-1.094 1.96.161 2.545Z"></path>
  <g>
    <path fill="#106e33" d="M463.465 536.414v-25.851h-9.233v-5.259h24.726v5.263h-9.215v25.847h-6.281Zm19.484 0v-31.116h9.4l5.645 21.225 5.582-21.225h9.423v31.116h-5.837v-24.493l-6.176 24.492h-6.043l-6.154-24.492v24.493h-5.836Z"></path>
  </g>
</svg>
